<?xml version="1.0"?><svg width="640" height="480" xmlns="http://www.w3.org/2000/svg">
 <title>fish silhouette</title>
 <g>
  <title>Layer 1</title>
  <g fill="#FCEE21">
   <path fill="#000000" stroke="#000000" d="m611.901855,262.076324c0.318176,-14.788162 -71.801392,-93.703232 -178.027435,-110.221024c-0.015808,-0.010513 -84.264862,-65.225304 -154.298065,-59.933296c0,0 44.951691,30.695755 38.954041,69.593575c-85.794403,31.101852 -110.06456,108.52504 -141.259659,109.452988c-34.513245,1.031036 -144.061916,-93.084579 -161.057159,-107.874847c13.931644,12.795502 87.319435,89.680023 46.085827,257.025299c0,0 72.83321,-117.030151 123.180317,-117.833954s80.351273,60.894897 218.556442,60.164734c4.668152,-0.025269 9.24765,-0.132568 13.742981,-0.315643c-13.020233,23.810913 -32.442719,46.075195 -32.442719,46.075195c30.91095,-0.866913 58.542419,-30.148651 73.919495,-50.233032c107.226013,-17.485718 152.316406,-81.000305 152.634583,-95.908417l0.011353,0.008423z"/>
   <path fill="#000000" stroke="#000000" d="m16.22497,163.093719c-1.420454,-1.302505 -2.22498,-1.946381 -2.22498,-1.946381s0.777273,0.68808 2.22498,1.946381z"/>
  </g>
 </g>
</svg>